<svg xmlns="http://www.w3.org/2000/svg" width="1186" height="600" viewBox="0 0 1186 600" fill="none"><circle cx="593" cy="300" r="139.5" stroke="#6B3ECC"></circle><circle opacity="0.8" cx="593" cy="300" r="219.5" stroke="#6B3ECC"></circle><circle opacity="0.4" cx="593" cy="300" r="299.5" stroke="#6B3ECC"></circle><path d="M594.226 290C597.799 296.188 597.799 303.812 594.226 310L455.773 549.808C452.201 555.996 445.598 559.808 438.453 559.808L161.547 559.808C154.402 559.808 147.799 555.996 144.226 549.808L5.77348 310C2.20085 303.812 2.20085 296.188 5.77349 290L144.226 50.1924C147.799 44.0043 154.402 40.1924 161.547 40.1924L438.453 40.1924C445.598 40.1924 452.201 44.0044 455.773 50.1924L594.226 290Z" fill="url(#paint0_linear_551_528)"></path><path d="M1180.23 290C1183.8 296.188 1183.8 303.812 1180.23 310L1041.77 549.808C1038.2 555.996 1031.6 559.808 1024.45 559.808L747.547 559.808C740.402 559.808 733.799 555.996 730.226 549.808L591.773 310C588.201 303.812 588.201 296.188 591.773 290L730.226 50.1924C733.799 44.0043 740.402 40.1924 747.547 40.1924L1024.45 40.1924C1031.6 40.1924 1038.2 44.0044 1041.77 50.1924L1180.23 290Z" fill="url(#paint1_linear_551_528)"></path><path d="M174.646 281.488C177.383 284.512 181.559 286.576 187.271 286.576C195.911 286.576 199.367 281.92 199.367 276.928C199.367 270.112 193.271 268.48 188.039 267.088C184.055 266.08 180.599 265.168 180.599 262.288C180.599 259.6 183.047 257.776 186.599 257.776C190.055 257.776 193.415 258.928 195.863 261.52L198.647 257.968C195.815 255.088 191.927 253.504 186.983 253.504C180.311 253.504 175.655 257.344 175.655 262.624C175.655 269.152 181.607 270.64 186.743 271.984C190.823 273.04 194.471 274 194.471 277.36C194.471 279.664 192.647 282.304 187.463 282.304C182.999 282.304 179.543 280.192 177.383 277.792L174.646 281.488ZM219.135 286H223.455V270.352C223.455 264.448 219.183 262.24 214.143 262.24C210.399 262.24 207.231 263.488 204.639 266.032L206.511 269.008C208.575 266.944 210.831 265.936 213.471 265.936C216.783 265.936 219.135 267.664 219.135 270.544V274.384C217.359 272.32 214.671 271.312 211.551 271.312C207.663 271.312 203.487 273.616 203.487 278.896C203.487 283.984 207.711 286.576 211.551 286.576C214.671 286.576 217.311 285.472 219.135 283.456V286ZM219.135 280.912C217.839 282.64 215.583 283.552 213.183 283.552C210.063 283.552 207.855 281.68 207.855 278.944C207.855 276.208 210.063 274.336 213.183 274.336C215.583 274.336 217.839 275.248 219.135 276.976V280.912ZM230.378 286H234.698V253.984H230.378V286ZM240.141 274.384C240.141 281.68 245.229 286.576 252.141 286.576C255.885 286.576 259.149 285.376 261.453 283.12L259.437 280.288C257.709 282.064 255.021 283.024 252.573 283.024C247.917 283.024 245.037 279.76 244.701 275.824H263.037V274.768C263.037 267.664 258.717 262.24 251.757 262.24C244.989 262.24 240.141 267.664 240.141 274.384ZM251.757 265.792C256.653 265.792 258.717 269.632 258.813 272.704H244.653C244.893 269.536 247.101 265.792 251.757 265.792ZM266.424 282.976C268.776 285.376 272.184 286.576 276.072 286.576C282.168 286.576 285.432 283.456 285.432 279.472C285.432 274.144 280.632 273.04 276.6 272.128C273.72 271.456 271.224 270.784 271.224 268.768C271.224 266.896 273.048 265.744 275.976 265.744C278.904 265.744 281.496 266.944 282.84 268.576L284.76 265.552C282.792 263.68 279.912 262.24 275.928 262.24C270.264 262.24 267.096 265.408 267.096 269.104C267.096 274.096 271.704 275.152 275.64 276.064C278.616 276.736 281.256 277.504 281.256 279.808C281.256 281.776 279.528 283.12 276.264 283.12C273.144 283.12 270.072 281.536 268.488 279.808L266.424 282.976ZM318.437 286.576C324.725 286.576 328.613 283.552 331.157 279.808L327.077 277.648C325.397 280.336 322.229 282.304 318.437 282.304C311.957 282.304 306.965 277.168 306.965 270.016C306.965 262.816 311.957 257.728 318.437 257.728C322.229 257.728 325.397 259.696 327.077 262.384L331.157 260.224C328.661 256.48 324.725 253.456 318.437 253.456C309.317 253.456 302.021 260.176 302.021 270.016C302.021 279.856 309.317 286.576 318.437 286.576ZM346.119 286.576C353.367 286.576 357.831 281.104 357.831 274.384C357.831 267.712 353.367 262.24 346.119 262.24C338.919 262.24 334.407 267.712 334.407 274.384C334.407 281.104 338.919 286.576 346.119 286.576ZM346.119 282.736C341.511 282.736 338.919 278.8 338.919 274.384C338.919 270.016 341.511 266.08 346.119 266.08C350.775 266.08 353.319 270.016 353.319 274.384C353.319 278.8 350.775 282.736 346.119 282.736ZM391.491 286H395.811V269.248C395.811 264.592 393.507 262.24 389.235 262.24C385.827 262.24 382.755 264.4 381.411 266.56C380.691 264.064 378.627 262.24 375.123 262.24C371.667 262.24 368.595 264.64 367.635 266.08V262.816H363.315V286H367.635V269.44C368.787 267.76 371.043 266.08 373.299 266.08C376.227 266.08 377.379 267.856 377.379 270.544V286H381.699V269.392C382.803 267.712 385.107 266.08 387.459 266.08C390.291 266.08 391.491 267.856 391.491 270.544V286ZM407.01 294.832V282.64C408.882 285.184 411.57 286.576 414.594 286.576C420.642 286.576 424.914 281.968 424.914 274.384C424.914 266.8 420.642 262.24 414.594 262.24C411.474 262.24 408.69 263.824 407.01 266.128V262.816H402.69V294.832H407.01ZM420.402 274.384C420.402 279.232 417.762 282.736 413.442 282.736C410.802 282.736 408.162 281.152 407.01 279.328V269.488C408.162 267.616 410.802 266.08 413.442 266.08C417.762 266.08 420.402 269.584 420.402 274.384ZM196.668 342H219.324V336.096H203.484V328.656H218.988V322.8H203.484V315.84H219.324V309.984H196.668V342ZM238.86 342H245.676L237.372 330.096L245.148 318.816H238.332L233.58 325.968L228.78 318.816H221.964L229.692 330.096L221.484 342H228.252L233.58 334.176L238.86 342ZM246.036 330.384C246.036 337.824 251.364 342.576 258.42 342.576C262.02 342.576 265.62 341.52 267.972 339.36L265.284 335.424C263.796 336.864 261.252 337.728 259.092 337.728C255.156 337.728 252.804 335.28 252.42 332.352H269.652V331.008C269.652 323.424 264.948 318.24 258.036 318.24C250.98 318.24 246.036 323.664 246.036 330.384ZM258.036 323.088C262.068 323.088 263.604 326.016 263.748 328.224H252.324C252.612 325.92 254.244 323.088 258.036 323.088ZM272.567 330.384C272.567 337.536 277.703 342.576 284.855 342.576C289.607 342.576 292.487 340.512 294.023 338.352L290.039 334.656C288.935 336.192 287.255 337.152 285.143 337.152C281.447 337.152 278.855 334.416 278.855 330.384C278.855 326.352 281.447 323.664 285.143 323.664C287.255 323.664 288.935 324.576 290.039 326.16L294.023 322.464C292.487 320.304 289.607 318.24 284.855 318.24C277.703 318.24 272.567 323.28 272.567 330.384ZM313.656 342H319.752V318.816H313.656V334.512C312.6 335.856 310.728 337.152 308.376 337.152C305.784 337.152 304.104 336.096 304.104 332.88V318.816H298.008V335.28C298.008 339.792 300.408 342.576 305.496 342.576C309.288 342.576 312.072 340.848 313.656 339.072V342ZM333.581 342.576C336.125 342.576 337.757 341.904 338.669 341.088L337.373 336.48C337.037 336.816 336.173 337.152 335.261 337.152C333.917 337.152 333.149 336.048 333.149 334.608V324.144H337.853V318.816H333.149V312.48H327.005V318.816H323.165V324.144H327.005V336.24C327.005 340.368 329.309 342.576 333.581 342.576ZM345.048 315.408C347.064 315.408 348.696 313.776 348.696 311.76C348.696 309.744 347.064 308.112 345.048 308.112C343.08 308.112 341.4 309.744 341.4 311.76C341.4 313.776 343.08 315.408 345.048 315.408ZM342.024 342H348.12V318.816H342.024V342ZM364.917 342.576C372.597 342.576 377.205 337.008 377.205 330.384C377.205 323.808 372.597 318.24 364.917 318.24C357.285 318.24 352.677 323.808 352.677 330.384C352.677 337.008 357.285 342.576 364.917 342.576ZM364.917 337.152C361.125 337.152 359.013 334.032 359.013 330.384C359.013 326.784 361.125 323.664 364.917 323.664C368.709 323.664 370.869 326.784 370.869 330.384C370.869 334.032 368.709 337.152 364.917 337.152ZM397.375 342H403.471V325.632C403.471 321.12 401.023 318.24 395.935 318.24C392.143 318.24 389.311 320.064 387.823 321.84V318.816H381.727V342H387.823V326.4C388.831 325.008 390.703 323.664 393.103 323.664C395.695 323.664 397.375 324.768 397.375 327.984V342Z" fill="#FAF9FB"></path><path d="M760.646 281.488C763.383 284.512 767.559 286.576 773.271 286.576C781.911 286.576 785.367 281.92 785.367 276.928C785.367 270.112 779.271 268.48 774.039 267.088C770.055 266.08 766.599 265.168 766.599 262.288C766.599 259.6 769.047 257.776 772.599 257.776C776.055 257.776 779.415 258.928 781.863 261.52L784.647 257.968C781.815 255.088 777.927 253.504 772.983 253.504C766.311 253.504 761.655 257.344 761.655 262.624C761.655 269.152 767.607 270.64 772.743 271.984C776.823 273.04 780.471 274 780.471 277.36C780.471 279.664 778.647 282.304 773.463 282.304C768.999 282.304 765.543 280.192 763.383 277.792L760.646 281.488ZM805.135 286H809.455V270.352C809.455 264.448 805.183 262.24 800.143 262.24C796.399 262.24 793.231 263.488 790.639 266.032L792.511 269.008C794.575 266.944 796.831 265.936 799.471 265.936C802.783 265.936 805.135 267.664 805.135 270.544V274.384C803.359 272.32 800.671 271.312 797.551 271.312C793.663 271.312 789.487 273.616 789.487 278.896C789.487 283.984 793.711 286.576 797.551 286.576C800.671 286.576 803.311 285.472 805.135 283.456V286ZM805.135 280.912C803.839 282.64 801.583 283.552 799.183 283.552C796.063 283.552 793.855 281.68 793.855 278.944C793.855 276.208 796.063 274.336 799.183 274.336C801.583 274.336 803.839 275.248 805.135 276.976V280.912ZM816.378 286H820.698V253.984H816.378V286ZM826.141 274.384C826.141 281.68 831.229 286.576 838.141 286.576C841.885 286.576 845.149 285.376 847.453 283.12L845.437 280.288C843.709 282.064 841.021 283.024 838.573 283.024C833.917 283.024 831.037 279.76 830.701 275.824H849.037V274.768C849.037 267.664 844.717 262.24 837.757 262.24C830.989 262.24 826.141 267.664 826.141 274.384ZM837.757 265.792C842.653 265.792 844.717 269.632 844.813 272.704H830.653C830.893 269.536 833.101 265.792 837.757 265.792ZM852.424 282.976C854.776 285.376 858.184 286.576 862.072 286.576C868.168 286.576 871.432 283.456 871.432 279.472C871.432 274.144 866.632 273.04 862.6 272.128C859.72 271.456 857.224 270.784 857.224 268.768C857.224 266.896 859.048 265.744 861.976 265.744C864.904 265.744 867.496 266.944 868.84 268.576L870.76 265.552C868.792 263.68 865.912 262.24 861.928 262.24C856.264 262.24 853.096 265.408 853.096 269.104C853.096 274.096 857.704 275.152 861.64 276.064C864.616 276.736 867.256 277.504 867.256 279.808C867.256 281.776 865.528 283.12 862.264 283.12C859.144 283.12 856.072 281.536 854.488 279.808L852.424 282.976ZM904.437 286.576C910.725 286.576 914.613 283.552 917.157 279.808L913.077 277.648C911.397 280.336 908.229 282.304 904.437 282.304C897.957 282.304 892.965 277.168 892.965 270.016C892.965 262.816 897.957 257.728 904.437 257.728C908.229 257.728 911.397 259.696 913.077 262.384L917.157 260.224C914.661 256.48 910.725 253.456 904.437 253.456C895.317 253.456 888.021 260.176 888.021 270.016C888.021 279.856 895.317 286.576 904.437 286.576ZM932.119 286.576C939.367 286.576 943.831 281.104 943.831 274.384C943.831 267.712 939.367 262.24 932.119 262.24C924.919 262.24 920.407 267.712 920.407 274.384C920.407 281.104 924.919 286.576 932.119 286.576ZM932.119 282.736C927.511 282.736 924.919 278.8 924.919 274.384C924.919 270.016 927.511 266.08 932.119 266.08C936.775 266.08 939.319 270.016 939.319 274.384C939.319 278.8 936.775 282.736 932.119 282.736ZM977.491 286H981.811V269.248C981.811 264.592 979.507 262.24 975.235 262.24C971.827 262.24 968.755 264.4 967.411 266.56C966.691 264.064 964.627 262.24 961.123 262.24C957.667 262.24 954.595 264.64 953.635 266.08V262.816H949.315V286H953.635V269.44C954.787 267.76 957.043 266.08 959.299 266.08C962.227 266.08 963.379 267.856 963.379 270.544V286H967.699V269.392C968.803 267.712 971.107 266.08 973.459 266.08C976.291 266.08 977.491 267.856 977.491 270.544V286ZM993.01 294.832V282.64C994.882 285.184 997.57 286.576 1000.59 286.576C1006.64 286.576 1010.91 281.968 1010.91 274.384C1010.91 266.8 1006.64 262.24 1000.59 262.24C997.474 262.24 994.69 263.824 993.01 266.128V262.816H988.69V294.832H993.01ZM1006.4 274.384C1006.4 279.232 1003.76 282.736 999.442 282.736C996.802 282.736 994.162 281.152 993.01 279.328V269.488C994.162 267.616 996.802 266.08 999.442 266.08C1003.76 266.08 1006.4 269.584 1006.4 274.384ZM813.23 342H825.855C835.887 342 842.847 335.664 842.847 326.016C842.847 316.368 835.887 309.984 825.855 309.984H813.23V342ZM820.047 336V315.984H825.855C832.431 315.984 835.887 320.352 835.887 326.016C835.887 331.44 832.191 336 825.855 336H820.047ZM846.052 330.384C846.052 337.824 851.38 342.576 858.436 342.576C862.036 342.576 865.636 341.52 867.988 339.36L865.3 335.424C863.812 336.864 861.268 337.728 859.108 337.728C855.172 337.728 852.82 335.28 852.436 332.352H869.668V331.008C869.668 323.424 864.964 318.24 858.052 318.24C850.996 318.24 846.052 323.664 846.052 330.384ZM858.052 323.088C862.084 323.088 863.62 326.016 863.764 328.224H852.34C852.628 325.92 854.26 323.088 858.052 323.088ZM872.055 338.976C874.503 341.232 878.391 342.576 882.423 342.576C888.855 342.576 892.455 339.408 892.455 335.136C892.455 329.376 887.127 328.32 883.143 327.552C880.551 327.024 878.727 326.496 878.727 325.056C878.727 323.712 880.167 322.896 882.375 322.896C885.207 322.896 887.847 324.096 889.239 325.584L891.639 321.408C889.383 319.584 886.263 318.24 882.327 318.24C876.231 318.24 872.823 321.648 872.823 325.536C872.823 331.056 877.959 332.016 881.943 332.784C884.583 333.312 886.599 333.888 886.599 335.52C886.599 336.96 885.351 337.872 882.711 337.872C879.831 337.872 876.375 336.288 874.695 334.704L872.055 338.976ZM899.97 315.408C901.986 315.408 903.618 313.776 903.618 311.76C903.618 309.744 901.986 308.112 899.97 308.112C898.002 308.112 896.322 309.744 896.322 311.76C896.322 313.776 898.002 315.408 899.97 315.408ZM896.946 342H903.042V318.816H896.946V342ZM908.607 347.952C911.487 350.496 914.607 351.408 918.591 351.408C924.303 351.408 931.119 349.248 931.119 340.416V318.816H924.975V321.792C923.103 319.44 920.607 318.24 917.823 318.24C911.967 318.24 907.599 322.464 907.599 330.048C907.599 337.776 912.015 341.856 917.823 341.856C920.655 341.856 923.151 340.512 924.975 338.208V340.56C924.975 345.12 921.519 346.416 918.591 346.416C915.663 346.416 913.215 345.6 911.343 343.536L908.607 347.952ZM924.975 333.792C923.967 335.28 921.759 336.432 919.743 336.432C916.287 336.432 913.887 334.032 913.887 330.048C913.887 326.064 916.287 323.664 919.743 323.664C921.759 323.664 923.967 324.768 924.975 326.304V333.792ZM952.813 342H958.909V325.632C958.909 321.12 956.461 318.24 951.373 318.24C947.581 318.24 944.749 320.064 943.261 321.84V318.816H937.165V342H943.261V326.4C944.269 325.008 946.141 323.664 948.541 323.664C951.133 323.664 952.813 324.768 952.813 327.984V342Z" fill="#FAF9FB"></path><path d="M681.845 310C685.418 303.812 685.418 296.188 681.845 290L646.083 228.058C642.51 221.87 635.908 218.058 628.762 218.058L557.238 218.058C550.092 218.058 543.49 221.87 539.917 228.058L504.155 290C500.582 296.188 500.582 303.812 504.155 310L539.917 371.942C543.49 378.13 550.092 381.942 557.238 381.942L628.762 381.942C635.908 381.942 642.51 378.13 646.083 371.942L681.845 310Z" fill="#422385" stroke="#FAF9FB" stroke-width="8"></path><path d="M528.933 299.008C528.933 303.832 532.461 307.288 537.285 307.288C542.133 307.288 545.661 303.832 545.661 299.008C545.661 294.184 542.133 290.728 537.285 290.728C532.461 290.728 528.933 294.184 528.933 299.008ZM542.157 299.008C542.157 301.984 540.237 304.264 537.285 304.264C534.333 304.264 532.437 301.984 532.437 299.008C532.437 296.008 534.333 293.752 537.285 293.752C540.237 293.752 542.157 296.008 542.157 299.008ZM547.981 307H551.029V299.344C551.533 298.6 552.877 298.048 553.885 298.048C554.221 298.048 554.509 298.072 554.725 298.12V295.144C553.285 295.144 551.845 295.96 551.029 296.992V295.408H547.981V307ZM555.885 301.192C555.885 304.768 558.453 307.288 562.029 307.288C564.405 307.288 565.845 306.256 566.613 305.176L564.621 303.328C564.069 304.096 563.229 304.576 562.173 304.576C560.325 304.576 559.029 303.208 559.029 301.192C559.029 299.176 560.325 297.832 562.173 297.832C563.229 297.832 564.069 298.288 564.621 299.08L566.613 297.232C565.845 296.152 564.405 295.12 562.029 295.12C558.453 295.12 555.885 297.64 555.885 301.192ZM576.454 307H579.502V298.768C579.502 296.512 578.278 295.12 575.734 295.12C573.838 295.12 572.398 296.032 571.654 296.92V290.992H568.606V307H571.654V299.2C572.182 298.504 573.118 297.832 574.294 297.832C575.614 297.832 576.454 298.336 576.454 299.944V307ZM581.784 301.192C581.784 304.912 584.448 307.288 587.976 307.288C589.776 307.288 591.576 306.76 592.752 305.68L591.408 303.712C590.664 304.432 589.392 304.864 588.312 304.864C586.344 304.864 585.168 303.64 584.976 302.176H593.592V301.504C593.592 297.712 591.24 295.12 587.784 295.12C584.256 295.12 581.784 297.832 581.784 301.192ZM587.784 297.544C589.8 297.544 590.568 299.008 590.64 300.112H584.928C585.072 298.96 585.888 297.544 587.784 297.544ZM594.785 305.488C596.009 306.616 597.953 307.288 599.969 307.288C603.185 307.288 604.985 305.704 604.985 303.568C604.985 300.688 602.321 300.16 600.329 299.776C599.033 299.512 598.121 299.248 598.121 298.528C598.121 297.856 598.841 297.448 599.945 297.448C601.361 297.448 602.681 298.048 603.377 298.792L604.577 296.704C603.449 295.792 601.889 295.12 599.921 295.12C596.873 295.12 595.169 296.824 595.169 298.768C595.169 301.528 597.737 302.008 599.729 302.392C601.049 302.656 602.057 302.944 602.057 303.76C602.057 304.48 601.433 304.936 600.113 304.936C598.673 304.936 596.945 304.144 596.105 303.352L594.785 305.488ZM611.119 307.288C612.391 307.288 613.207 306.952 613.663 306.544L613.015 304.24C612.847 304.408 612.415 304.576 611.959 304.576C611.287 304.576 610.903 304.024 610.903 303.304V298.072H613.255V295.408H610.903V292.24H607.831V295.408H605.911V298.072H607.831V304.12C607.831 306.184 608.983 307.288 611.119 307.288ZM615.34 307H618.388V299.344C618.892 298.6 620.236 298.048 621.244 298.048C621.58 298.048 621.868 298.072 622.084 298.12V295.144C620.644 295.144 619.204 295.96 618.388 296.992V295.408H615.34V307ZM630.949 307H633.997V299.512C633.997 296.176 631.573 295.12 628.933 295.12C627.109 295.12 625.285 295.696 623.869 296.944L625.021 298.984C626.005 298.072 627.157 297.616 628.405 297.616C629.941 297.616 630.949 298.384 630.949 299.56V301.168C630.181 300.232 628.813 299.752 627.277 299.752C625.429 299.752 623.245 300.736 623.245 303.448C623.245 306.04 625.429 307.288 627.277 307.288C628.789 307.288 630.157 306.736 630.949 305.8V307ZM630.949 304.216C630.445 304.888 629.485 305.224 628.501 305.224C627.301 305.224 626.317 304.6 626.317 303.52C626.317 302.416 627.301 301.768 628.501 301.768C629.485 301.768 630.445 302.104 630.949 302.776V304.216ZM640.908 307.288C642.18 307.288 642.996 306.952 643.452 306.544L642.804 304.24C642.636 304.408 642.204 304.576 641.748 304.576C641.076 304.576 640.692 304.024 640.692 303.304V298.072H643.044V295.408H640.692V292.24H637.62V295.408H635.7V298.072H637.62V304.12C637.62 306.184 638.772 307.288 640.908 307.288ZM644.385 301.192C644.385 304.912 647.049 307.288 650.577 307.288C652.377 307.288 654.177 306.76 655.353 305.68L654.009 303.712C653.265 304.432 651.993 304.864 650.913 304.864C648.945 304.864 647.769 303.64 647.577 302.176H656.193V301.504C656.193 297.712 653.841 295.12 650.385 295.12C646.857 295.12 644.385 297.832 644.385 301.192ZM650.385 297.544C652.401 297.544 653.169 299.008 653.241 300.112H647.529C647.673 298.96 648.489 297.544 650.385 297.544Z" fill="white"></path><defs><linearGradient id="paint0_linear_551_528" x1="600" y1="560" x2="-5.03669e-05" y2="39.5" gradientUnits="userSpaceOnUse"><stop stop-color="#AFE6DB"></stop><stop offset="1" stop-color="#AFE6DB" stop-opacity="0"></stop></linearGradient><linearGradient id="paint1_linear_551_528" x1="585" y1="40" x2="1186" y2="560" gradientUnits="userSpaceOnUse"><stop stop-color="#D7B3FF"></stop><stop offset="1" stop-color="#D7B3FF" stop-opacity="0"></stop></linearGradient></defs></svg>